<svg width="121" height="120" viewBox="0 0 121 120" fill="none" xmlns="http://www.w3.org/2000/svg">
  <path d="M67.1528 5.81717C63.583 1.89898 57.417 1.89898 53.8472 5.81717L50.7916 9.17093C48.9497 11.1925 46.0991 11.9564 43.4932 11.1265L39.1701 9.74988C34.1194 8.14156 28.7796 11.2245 27.6471 16.4027L26.6777 20.8349C26.0934 23.5067 24.0067 25.5934 21.3349 26.1777L16.9027 27.1471C11.7245 28.2796 8.64155 33.6194 10.2499 38.6701L11.6265 42.9932C12.4564 45.5991 11.6925 48.4497 9.67093 50.2916L6.31717 53.3472C2.39898 56.917 2.39897 63.083 6.31716 66.6528L9.67093 69.7084C11.6925 71.5503 12.4564 74.4009 11.6265 77.0068L10.2499 81.3299C8.64156 86.3806 11.7245 91.7204 16.9027 92.8529L21.3349 93.8223C24.0067 94.4066 26.0934 96.4933 26.6777 99.1651L27.6471 103.597C28.7796 108.775 34.1194 111.858 39.1701 110.25L43.4932 108.873C46.0991 108.044 48.9497 108.807 50.7916 110.829L53.8472 114.183C57.417 118.101 63.583 118.101 67.1528 114.183L70.2084 110.829C72.0503 108.807 74.9009 108.044 77.5068 108.873L81.8299 110.25C86.8806 111.858 92.2204 108.775 93.3529 103.597L94.3223 99.1651C94.9066 96.4933 96.9933 94.4066 99.6651 93.8223L104.097 92.8529C109.275 91.7204 112.358 86.3806 110.75 81.3299L109.373 77.0068C108.544 74.4009 109.307 71.5503 111.329 69.7084L114.683 66.6528C118.601 63.083 118.601 56.917 114.683 53.3472L111.329 50.2916C109.307 48.4497 108.544 45.5991 109.373 42.9932L110.75 38.6701C112.358 33.6194 109.275 28.2796 104.097 27.1471L99.6651 26.1777C96.9933 25.5934 94.9066 23.5067 94.3223 20.8349L93.3529 16.4027C92.2204 11.2245 86.8806 8.14156 81.8299 9.74988L77.5068 11.1265C74.9009 11.9564 72.0503 11.1925 70.2084 9.17093L67.1528 5.81717Z" fill="#AE0707" stroke="#BE3232" stroke-width="2"/>
  <g filter="url(#filter0_i_3440_10095)">
  <circle cx="60.5" cy="60" r="36" fill="white"/>
  </g>
  <path d="M74.2616 56.4591C73.7314 55.905 73.183 55.3341 72.9762 54.832C72.785 54.3722 72.7738 53.61 72.7625 52.8717C72.7414 51.4992 72.7189 49.9439 71.6375 48.8625C70.5561 47.7811 69.0008 47.7586 67.6283 47.7375C66.89 47.7262 66.1278 47.715 65.668 47.5237C65.1673 47.317 64.595 46.7686 64.0409 46.2384C63.0706 45.3061 61.9681 44.25 60.5 44.25C59.0319 44.25 57.9308 45.3061 56.9591 46.2384C56.405 46.7686 55.8341 47.317 55.332 47.5237C54.875 47.715 54.11 47.7262 53.3717 47.7375C51.9992 47.7586 50.4439 47.7811 49.3625 48.8625C48.2811 49.9439 48.2656 51.4992 48.2375 52.8717C48.2262 53.61 48.215 54.3722 48.0237 54.832C47.817 55.3327 47.2686 55.905 46.7384 56.4591C45.8061 57.4294 44.75 58.5319 44.75 60C44.75 61.4681 45.8061 62.5692 46.7384 63.5409C47.2686 64.095 47.817 64.6659 48.0237 65.168C48.215 65.6278 48.2262 66.39 48.2375 67.1283C48.2586 68.5008 48.2811 70.0561 49.3625 71.1375C50.4439 72.2189 51.9992 72.2414 53.3717 72.2625C54.11 72.2738 54.8722 72.285 55.332 72.4762C55.8327 72.683 56.405 73.2314 56.9591 73.7616C57.9294 74.6939 59.0319 75.75 60.5 75.75C61.9681 75.75 63.0692 74.6939 64.0409 73.7616C64.595 73.2314 65.1659 72.683 65.668 72.4762C66.1278 72.285 66.89 72.2738 67.6283 72.2625C69.0008 72.2414 70.5561 72.2189 71.6375 71.1375C72.7189 70.0561 72.7414 68.5008 72.7625 67.1283C72.7738 66.39 72.785 65.6278 72.9762 65.168C73.183 64.6673 73.7314 64.095 74.2616 63.5409C75.1939 62.5706 76.25 61.4681 76.25 60C76.25 58.5319 75.1939 57.4308 74.2616 56.4591ZM59.375 53.25C59.375 52.9516 59.4935 52.6655 59.7045 52.4545C59.9155 52.2435 60.2016 52.125 60.5 52.125C60.7984 52.125 61.0845 52.2435 61.2955 52.4545C61.5065 52.6655 61.625 52.9516 61.625 53.25V61.125C61.625 61.4234 61.5065 61.7095 61.2955 61.9205C61.0845 62.1315 60.7984 62.25 60.5 62.25C60.2016 62.25 59.9155 62.1315 59.7045 61.9205C59.4935 61.7095 59.375 61.4234 59.375 61.125V53.25ZM60.5 67.875C60.1662 67.875 59.84 67.776 59.5625 67.5906C59.285 67.4052 59.0687 67.1416 58.941 66.8333C58.8132 66.5249 58.7798 66.1856 58.8449 65.8583C58.91 65.5309 59.0708 65.2303 59.3068 64.9943C59.5428 64.7583 59.8434 64.5975 60.1708 64.5324C60.4981 64.4673 60.8374 64.5007 61.1458 64.6285C61.4541 64.7562 61.7177 64.9725 61.9031 65.25C62.0885 65.5275 62.1875 65.8537 62.1875 66.1875C62.1875 66.6351 62.0097 67.0643 61.6932 67.3807C61.3768 67.6972 60.9476 67.875 60.5 67.875Z" fill="#AE0707"/>
  <defs>
  <filter id="filter0_i_3440_10095" x="24.5" y="23.1667" width="72" height="72.8333" filterUnits="userSpaceOnUse" color-interpolation-filters="sRGB">
  <feFlood flood-opacity="0" result="BackgroundImageFix"/>
  <feBlend mode="normal" in="SourceGraphic" in2="BackgroundImageFix" result="shape"/>
  <feColorMatrix in="SourceAlpha" type="matrix" values="0 0 0 0 0 0 0 0 0 0 0 0 0 0 0 0 0 0 127 0" result="hardAlpha"/>
  <feOffset dy="-0.833333"/>
  <feGaussianBlur stdDeviation="8.33333"/>
  <feComposite in2="hardAlpha" operator="arithmetic" k2="-1" k3="1"/>
  <feColorMatrix type="matrix" values="0 0 0 0 0.85098 0 0 0 0 0.133333 0 0 0 0 0 0 0 0 1 0"/>
  <feBlend mode="normal" in2="shape" result="effect1_innerShadow_3440_10095"/>
  </filter>
  </defs>
  </svg>
  